<?xml version="1.0" encoding="UTF-8"?>
<svg id="_レイヤー_2" data-name="レイヤー 2" xmlns="http://www.w3.org/2000/svg" viewBox="0 0 121.83 121">
  <defs>
    <style>
      .cls-1 {
        fill: none;
      }

      .cls-1, .cls-2, .cls-3 {
        stroke: #231815;
        stroke-miterlimit: 10;
      }

      .cls-4, .cls-2 {
        fill: #fff;
      }

      .cls-3 {
        fill: #231815;
      }
    </style>
  </defs>
  <g id="_レイヤー_1-2" data-name="レイヤー 1">
    <path class="cls-3" d="M21.53,106.91h16.38v3.19c0,2.76-2.24,5-5,5h-6.38c-2.76,0-5-2.24-5-5v-3.19h0Z"/>
    <path class="cls-3" d="M8.74,111.52h17.96v3.98c0,2.76-2.24,5-5,5h-7.96c-2.76,0-5-2.24-5-5v-3.98h0Z"/>
    <path class="cls-3" d="M88.74,106.91h6.38c2.76,0,5,2.24,5,5v3.19h-16.38v-3.19c0-2.76,2.24-5,5-5Z" transform="translate(183.86 222.01) rotate(-180)"/>
    <path class="cls-3" d="M99.95,111.52h7.96c2.76,0,5,2.24,5,5v3.98h-17.96v-3.98c0-2.76,2.24-5,5-5Z" transform="translate(207.86 232.01) rotate(-180)"/>
    <polygon class="cls-2" points="6.68 19.88 10.33 19.88 10.33 23.26 7.14 23.26 6.68 19.88"/>
    <path class="cls-2" d="M113.33,7.57v88.94c0,2.76-2.24,5-5,5H13.33c-2.76,0-5-2.24-5-5V7.57c0-2.6,1.98-4.76,4.57-4.98C21.33,1.88,40.32.5,60.99.5s39.42,1.37,47.78,2.09c2.59.22,4.57,2.38,4.57,4.98Z"/>
    <path class="cls-3" d="M104.33,22H17.33c-2.76,0-5,2.24-5,5v48h97V27c0-2.76-2.24-5-5-5ZM105.33,71H16.33V27c0-.55.45-1,1-1h87c.55,0,1,.45,1,1v44Z"/>
    <path class="cls-3" d="M109.33,19V7.57c0-.52-.39-.95-.91-1-9.08-.77-27.31-2.07-47.44-2.07s-38.56,1.3-47.74,2.08c-.52.04-.91.47-.91,1v11.43h97Z"/>
    <line class="cls-2" x1="26.83" y1="75" x2="51.83" y2="50"/>
    <line class="cls-2" x1="94.83" y1="75" x2="69.83" y2="50"/>
    <path class="cls-3" d="M52.07,61h-5.01c0-4.95-4.03-8.98-8.98-8.98s-8.98,4.03-8.98,8.98h-5.01c0-7.71,6.28-13.99,13.99-13.99s13.99,6.28,13.99,13.99Z"/>
    <path class="cls-3" d="M54.3,61H21.86c-3.13,0-5.87,2.07-6.73,5.08l-2.55,8.92h51l-2.55-8.92c-.86-3.01-3.61-5.08-6.73-5.08Z"/>
    <rect class="cls-3" x="8.83" y="99" width="104" height="15"/>
    <rect class="cls-2" x="47.83" y="99" width="25" height="11"/>
    <g>
      <rect class="cls-4" x=".5" y="26" width="6.67" height="17" rx="2" ry="2"/>
      <rect class="cls-1" x=".5" y="26" width="6.67" height="17" rx="2" ry="2"/>
    </g>
    <path class="cls-2" d="M8.21,19.98h1v17h-3v-15c0-1.1.9-2,2-2Z" transform="translate(-7.56 3.23) rotate(-16.01)"/>
    <circle class="cls-2" cx="9.85" cy="36.25" r="4.5"/>
    <polygon class="cls-2" points="115.16 19.88 111.5 19.88 111.5 23.26 114.7 23.26 115.16 19.88"/>
    <g>
      <rect class="cls-4" x="114.67" y="26" width="6.67" height="17" rx="2" ry="2"/>
      <rect class="cls-1" x="114.67" y="26" width="6.67" height="17" rx="2" ry="2"/>
    </g>
    <path class="cls-2" d="M112.63,19.98h3v17h-1c-1.1,0-2-.9-2-2v-15h0Z" transform="translate(215.97 87.33) rotate(-163.99)"/>
    <circle class="cls-2" cx="111.99" cy="36.25" r="4.5"/>
    <g>
      <path class="cls-4" d="M24.83,88c0,1.1-.9,2-2,2h-4c-1.1,0-2-.9-2-2h0c0-1.1.9-2,2-2h4c1.1,0,2,.9,2,2h0Z"/>
      <path class="cls-1" d="M24.83,88c0,1.1-.9,2-2,2h-4c-1.1,0-2-.9-2-2h0c0-1.1.9-2,2-2h4c1.1,0,2,.9,2,2h0Z"/>
    </g>
    <g>
      <path class="cls-4" d="M24.83,94c0,1.1-.9,2-2,2h-4c-1.1,0-2-.9-2-2h0c0-1.1.9-2,2-2h4c1.1,0,2,.9,2,2h0Z"/>
      <path class="cls-1" d="M24.83,94c0,1.1-.9,2-2,2h-4c-1.1,0-2-.9-2-2h0c0-1.1.9-2,2-2h4c1.1,0,2,.9,2,2h0Z"/>
    </g>
    <path class="cls-2" d="M8.83,86h3c1.1,0,2,.9,2,2v6h-5v-8h0Z"/>
    <g>
      <path class="cls-4" d="M96.83,88c0,1.1.9,2,2,2h4c1.1,0,2-.9,2-2h0c0-1.1-.9-2-2-2h-4c-1.1,0-2,.9-2,2h0Z"/>
      <path class="cls-1" d="M96.83,88c0,1.1.9,2,2,2h4c1.1,0,2-.9,2-2h0c0-1.1-.9-2-2-2h-4c-1.1,0-2,.9-2,2h0Z"/>
    </g>
    <g>
      <path class="cls-4" d="M96.83,94c0,1.1.9,2,2,2h4c1.1,0,2-.9,2-2h0c0-1.1-.9-2-2-2h-4c-1.1,0-2,.9-2,2h0Z"/>
      <path class="cls-1" d="M96.83,94c0,1.1.9,2,2,2h4c1.1,0,2-.9,2-2h0c0-1.1-.9-2-2-2h-4c-1.1,0-2,.9-2,2h0Z"/>
    </g>
    <path class="cls-2" d="M107.83,86h5v6c0,1.1-.9,2-2,2h-3v-8h0Z" transform="translate(220.67 180.01) rotate(-180)"/>
  </g>
</svg>