<?xml version="1.0" encoding="UTF-8"?>
<svg id="_レイヤー_2" data-name="レイヤー 2" xmlns="http://www.w3.org/2000/svg" viewBox="0 0 112.58 77.99">
  <defs>
    <style>
      .cls-1, .cls-2 {
        fill: #fff;
      }

      .cls-1, .cls-2, .cls-3 {
        stroke: #000;
      }

      .cls-1, .cls-3 {
        stroke-miterlimit: 10;
      }

      .cls-2 {
        stroke-linejoin: round;
      }

      .cls-3 {
        fill: #000;
      }
    </style>
  </defs>
  <g id="_レイヤー_1-2" data-name="レイヤー 1">
    <path class="cls-3" d="M25.9,63.9h16.38v3.19c0,2.76-2.24,5-5,5h-6.38c-2.76,0-5-2.24-5-5v-3.19h0Z"/>
    <path class="cls-3" d="M69.9,63.9h16.38v3.19c0,2.76-2.24,5-5,5h-6.38c-2.76,0-5-2.24-5-5v-3.19h0Z"/>
    <path class="cls-1" d="M90.21,5.03c-.83-2.69-3.32-4.53-6.13-4.53H29.06c-3.38,0-6.36,2.2-7.36,5.43l-8.31,27c-.19.61-.28,1.25-.28,1.89v33.68h85.97v-33.49c0-.77-.11-1.53-.34-2.26l-8.53-27.73Z"/>
    <path class="cls-1" d="M21.8,27.45l4.64-15.09c.99-3.23,3.98-5.43,7.36-5.43h45.54c2.82,0,5.3,1.84,6.13,4.53l4.92,16H21.8Z"/>
    <path class="cls-3" d="M13.11,68.5h17.96v3.98c0,2.76-2.24,5-5,5h-7.96c-2.76,0-5-2.24-5-5v-3.98h0Z"/>
    <path class="cls-3" d="M81.11,68.5h17.96v3.98c0,2.76-2.24,5-5,5h-7.96c-2.76,0-5-2.24-5-5v-3.98h0Z"/>
    <path class="cls-3" d="M13.33,31.27c-1.61-.42-2.72-2.9-2.72-2.9l-3.33-1.35s-.54,3.63,1.51,5.68,4.1,2.33,4.1,2.33l.44-3.78Z"/>
    <path class="cls-1" d="M8.76,22.03l-5.44-.76c-1.34-.19-2.57.78-2.71,2.13l-.1,1.01c-.13,1.27.52,2.49,1.63,3.11l9.41,3.8.42-5.29c.16-1.97-1.25-3.72-3.21-3.99Z"/>
    <path class="cls-3" d="M99.25,31.27c1.61-.42,2.72-2.9,2.72-2.9l3.33-1.35s.54,3.63-1.51,5.68-4.1,2.33-4.1,2.33l-.44-3.78Z"/>
    <path class="cls-1" d="M103.81,22.03l5.44-.76c1.34-.19,2.57.78,2.71,2.13l.1,1.01c.13,1.27-.52,2.49-1.63,3.11l-9.41,3.8-.42-5.29c-.16-1.97,1.25-3.72,3.21-3.99Z"/>
    <path class="cls-3" d="M81.11,64.65v3.85H31.07v-3.85s8.91,1.92,25.02,1.92,25.02-1.92,25.02-1.92Z"/>
    <polygon class="cls-3" points="81.11 68.79 31.07 68.79 33.64 70.07 78.55 70.07 81.11 68.79"/>
    <path class="cls-2" d="M20.81,47.52l17.96,1.74s-2.57-7.7-3.85-8.98-14.11-3.85-14.11-3.85l1.28,2.57s-3.85-2.57-3.85,0-1.28,6.78,2.57,8.52Z"/>
    <path class="cls-3" d="M90.39,27.45l-4.64-15.09c-.99-3.23-3.98-5.43-7.36-5.43h-45.54c-2.82,0-5.3,1.84-6.13,4.53l-4.92,16h68.6Z"/>
    <path class="cls-1" d="M30.05,27.45c-2.46,0-4.29-2.27-3.76-4.67l2.88-13.14c.5-1.63,1.98-2.72,3.68-2.72h45.54c2.27,0,4.24,1.46,4.91,3.62l2.62,12.25c.51,2.4-1.31,4.66-3.76,4.66H30.05Z"/>
    <path class="cls-2" d="M91.38,47.52l-17.96,1.74s2.57-7.7,3.85-8.98,14.11-3.85,14.11-3.85l-1.28,2.57s3.85-2.57,3.85,0,1.28,6.78-2.57,8.52Z"/>
    <path class="cls-1" d="M70.52,44.77c0,3.72-6.46,6.73-14.43,6.73s-14.43-3.01-14.43-6.73"/>
    <rect class="cls-1" x="18.24" y="53.11" width="6.42" height="11.55"/>
    <circle class="cls-1" cx="21.45" cy="61.45" r="3.21"/>
    <rect class="cls-1" x="86.25" y="53.11" width="6.42" height="11.55"/>
    <circle class="cls-1" cx="89.46" cy="61.45" r="3.21"/>
    <path class="cls-3" d="M34.92,40.28s10.28,2.72,21.28,2.72"/>
    <path class="cls-3" d="M77.2,40.28s-10.28,2.72-21.28,2.72"/>
    <path class="cls-3" d="M50.68,26.99h-3.39c0-3.35-2.73-6.08-6.08-6.08s-6.08,2.73-6.08,6.08h-3.39c0-5.22,4.25-9.47,9.47-9.47s9.47,4.25,9.47,9.47Z"/>
  </g>
</svg>