<?xml version="1.0" encoding="UTF-8"?><svg id="_レイヤー_2" xmlns="http://www.w3.org/2000/svg" viewBox="0 0 29.27 12.86"><defs><style>.cls-1{fill:#000000;}</style></defs><g id="_レイヤー_1-2"><path class="cls-1" d="M9.01,8.43c2.39-.4,3.84-1.31,3.84-3.52C12.85,2.42,10.84.18,6.42.18.71.18.27,4.5.27,5.82h1.99c0-1.44.42-3.79,3.86-3.79,3.14,0,4.75.81,4.75,2.87,0,.76-.82,1.71-2.34,1.96-4.63.78-7.47,1.81-8.1,3.54C-.21,12.14.05,12.86.05,12.86h12.8v-2.14H2.41c.87-1.18,4.72-1.98,6.6-2.29Z"/><path class="cls-1" d="M15.77,0v1.86h10.8v1.15c-1.9,1.57-5.99,6.23-5.99,9.84h2.43c0-.89.84-3.1,2.3-5.18,1.65-2.35,3.96-4.53,3.96-4.53V0h-13.5Z"/></g></svg>
