<?xml version="1.0" encoding="UTF-8"?><svg id="_レイヤー_2" xmlns="http://www.w3.org/2000/svg" viewBox="0 0 156.44 43.98"><defs><style>.cls-1{fill:none;}.cls-2{fill:#231815;}</style></defs><g id="_レイヤー_1-2"><path class="cls-2" d="M136.09,23.13c-3.81,0-6.5,1.85-7.68,2.85-.61-1.59-1.9-2.85-4.47-2.85-3.76,0-6.17,2.16-7.2,3.33v-2.8c0-2.57-5.87-1.6-6.29,0,0,0-5.74,1.38-8.02,1.84-1.31.27-4.56.85-6.99,1.28-.25-.26-.52-.51-.81-.74-2.1-1.65-4.67-2.47-7.72-2.47-3.4,0-6.1.95-8.11,2.86-1.94,1.84-2.93,4.28-3.01,7.33-1.88.45-4.84,1.14-6.33,1.44-.74.15-2.09.4-3.56.67.16-.81.25-1.66.25-2.57,0-3.2-1.05-5.62-3.15-7.26-2.1-1.65-4.67-2.47-7.72-2.47-3.38,0-6.07.95-8.08,2.83-1.83.43-4.19.98-5.47,1.24-2.21.45-9.92,1.79-9.92,1.79,0,0,.22-2.47.89-3.98.51-1.15-.61-1.77-1.29-1.79-.18,0-.34.01-.5.03-2.25.2-8.1,1.25-10.03,4.09v-4.13h-5.49v19.89h5.49v-13.03c1.88-1.31,5.29-1.51,8.07-1.51.32,0,.63,0,.93,0,.62,1.78,1.55,3.31,1.93,3.31,0,0,7.95-1.39,10.23-1.86.7-.14,1.75-.38,2.84-.63-.49,1.27-.74,2.7-.74,4.29,0,3.01.96,5.4,2.87,7.18,1.91,1.78,4.49,2.67,7.74,2.67,3.89,0,6.77-1.01,8.62-3.02.57-.62,1.04-1.29,1.43-2.01,1.99-.36,4-.73,4.98-.92,1.48-.3,4.46-1,6.25-1.43.39,1.88,1.26,3.45,2.61,4.71,1.91,1.78,4.49,2.67,7.74,2.67,3.89,0,6.77-1.01,8.62-3.02,1.85-2.02,2.78-4.57,2.78-7.66,0-1.48-.24-2.79-.69-3.94,2.19-.39,4.56-.82,5.65-1.04,2.2-.45,7.71-1.78,7.71-1.78.24-.03.51-.08.8-.14v17.14h5.49v-13.26c.47-2.92,1.94-4.17,4.05-4.17,1.91,0,2.52,1.59,2.6,2.61,0,0,0,0,.01,0v14.82h5.49v-12.2c.35-3.36,1.62-5.24,4.05-5.24,1.91,0,2.52,1.59,2.6,2.61,0,0,0,0,.01,0v14.82h5.49v-14.19h-.04c.02-.12.04-.25.04-.4,0-2.66-.86-5.82-4.95-5.82ZM59.64,38.81c-.82,1.63-2.32,2.44-4.51,2.44-2,0-3.46-.68-4.38-2.05s-1.38-3.08-1.38-5.13.46-3.96,1.38-5.47c.92-1.51,2.39-2.27,4.41-2.27,2.28,0,3.89.89,4.82,2.66.59,1.13.88,2.59.88,4.39,0,1.99-.41,3.8-1.22,5.43ZM91.27,38.81c-.82,1.63-2.32,2.44-4.51,2.44-2,0-3.46-.68-4.38-2.05-.92-1.37-1.38-3.08-1.38-5.13s.46-3.96,1.38-5.47c.92-1.51,2.39-2.27,4.41-2.27,2.28,0,3.89.89,4.82,2.66.59,1.13.88,2.59.88,4.39,0,1.99-.41,3.8-1.22,5.43Z"/><rect class="cls-1" y="11.98" width="15.4" height="16.97"/><path class="cls-2" d="M136.18,8.43c2.39-.4,3.84-1.31,3.84-3.52,0-2.49-2.01-4.73-6.43-4.73-5.71,0-6.15,4.32-6.15,5.65h1.99c0-1.44.42-3.79,3.86-3.79,3.14,0,4.75.81,4.75,2.87,0,.76-.82,1.71-2.34,1.96-4.63.78-7.47,1.81-8.1,3.54-.63,1.73-.37,2.44-.37,2.44h12.8v-2.14h-10.44c.87-1.18,4.72-1.98,6.6-2.29Z"/><path class="cls-2" d="M142.94,0v1.86h10.8v1.15c-1.9,1.57-5.99,6.23-5.99,9.84h2.43c0-.89.84-3.1,2.3-5.18,1.65-2.35,3.96-4.53,3.96-4.53V0h-13.5Z"/></g></svg>