<?xml version="1.0" encoding="UTF-8"?>
<svg id="_レイヤー_2" data-name="レイヤー 2" xmlns="http://www.w3.org/2000/svg" viewBox="0 0 35 48">
  <defs>
    <style>
      .cls-1 {
        fill: #231815;
      }

      .cls-2 {
        fill: none;
        stroke: #231815;
        stroke-miterlimit: 10;
      }
    </style>
  </defs>
  <g id="_レイヤー_1-2" data-name="レイヤー 1">
    <polygon class="cls-2" points="23.69 .5 .5 .5 .5 47.5 34.5 47.5 34.5 11.31 23.69 .5"/>
    <path class="cls-1" d="M6.83,34.34c-1.22-1.22.1-2.91,3.69-4.69l2.26-1.12.88-1.93c.48-1.06,1.21-2.79,1.61-3.84l.73-1.92-.5-1.42c-.62-1.74-.83-4.36-.44-5.31.53-1.28,2.26-1.15,2.95.22.54,1.07.48,3-.15,5.44l-.52,2,.46.78c.25.43.99,1.44,1.64,2.26l1.22,1.51,1.52-.2c4.81-.63,6.46.44,6.46,1.97,0,1.93-3.78,2.09-6.95-.14-.71-.5-1.2-1-1.2-1,0,0-1.99.4-2.97.67-1.01.27-1.51.44-2.99.94,0,0-.52.75-.86,1.3-1.26,2.04-2.73,3.73-3.78,4.35-1.18.69-2.41.74-3.03.12ZM8.75,33.65c.69-.43,2.08-2.07,3.04-3.6l.39-.62-1.78.89c-2.74,1.38-4,2.68-3.35,3.47.37.44.81.41,1.69-.14h0ZM26.58,28.65c.67-.47.58-1.42-.19-1.8-.59-.3-1.07-.36-2.61-.34-.95.06-2.46.25-2.72.31,0,0,.83.58,1.21.79.49.28,1.69.8,2.57,1.07.86.26,1.36.24,1.74-.03h0ZM19.41,25.67c-.41-.43-1.1-1.32-1.54-1.99-.57-.75-.86-1.28-.86-1.28,0,0-.42,1.35-.76,2.16l-1.07,2.66-.31.6s1.66-.54,2.5-.76c.89-.23,2.7-.59,2.7-.59l-.65-.8ZM17.1,16.41c.1-.87.15-1.74-.13-2.18-.78-.85-1.71-.14-1.56,1.88.05.68.22,1.84.45,2.56l.41,1.3.29-.98c.16-.54.4-1.7.54-2.57h0Z"/>
  </g>
</svg>