<?xml version="1.0" encoding="UTF-8"?>
<svg id="_レイヤー_2" data-name="レイヤー 2" xmlns="http://www.w3.org/2000/svg" viewBox="0 0 98.1 133.49">
  <defs>
    <style>
      .cls-1, .cls-2 {
        fill: #000;
      }

      .cls-3 {
        fill: none;
      }

      .cls-3, .cls-4, .cls-2 {
        stroke: #000;
        stroke-miterlimit: 10;
      }

      .cls-5, .cls-4 {
        fill: #fff;
      }
    </style>
  </defs>
  <g id="_レイヤー_1-2" data-name="レイヤー 1">
    <rect class="cls-2" x=".6" y="104.49" width="5" height="18"/>
    <rect class="cls-2" x="92.6" y="104.5" width="5" height="18"/>
    <path class="cls-2" d="M25,.5h48c6.62,0,12,5.38,12,12v12H13v-12C13,5.88,18.38.5,25,.5Z"/>
    <path class="cls-4" d="M97.5,23.56v84.94c0,2.76-2.24,5-5,5H5.5c-2.76,0-5-2.24-5-5V23.56c0-2.6,1.98-4.76,4.57-4.98,8.42-.71,23.41-2.09,44.08-2.09s35.42,1.37,43.78,2.09c2.59.22,4.57,2.38,4.57,4.98Z"/>
    <rect class="cls-2" x="2.1" y="116.99" width="94" height="3"/>
    <rect class="cls-2" x="2.6" y="123.49" width="94" height="3"/>
    <rect class="cls-2" x="3.1" y="129.99" width="94" height="3"/>
    <g>
      <rect class="cls-2" x="11.6" y="118.5" width="3" height="12"/>
      <rect class="cls-2" x="35.6" y="118.5" width="3" height="12"/>
      <rect class="cls-2" x="59.6" y="118.5" width="3" height="12"/>
      <rect class="cls-2" x="83.6" y="118.5" width="3" height="12"/>
    </g>
    <circle class="cls-4" cx="49" cy="98.5" r="6"/>
    <g>
      <rect class="cls-1" x="37" y="41.5" width="24" height="33" rx="2" ry="2"/>
      <rect class="cls-3" x="37" y="41.5" width="24" height="33" rx="2" ry="2"/>
    </g>
    <g>
      <rect class="cls-5" x="26.5" y="23.5" width="45" height="10" rx="2" ry="2"/>
      <rect class="cls-3" x="26.5" y="23.5" width="45" height="10" rx="2" ry="2"/>
    </g>
    <g>
      <path class="cls-1" d="M16.61,41.5c-1.1,0-2.64.64-3.41,1.41l-2.78,2.78c-.78.78-1.41,2.31-1.41,3.41v23.39c0,1.1.9,2,2,2h20c1.1,0,2-.9,2-2v-29c0-1.1-.9-2-2-2h-14.39Z"/>
      <path class="cls-3" d="M16.61,41.5c-1.1,0-2.64.64-3.41,1.41l-2.78,2.78c-.78.78-1.41,2.31-1.41,3.41v23.39c0,1.1.9,2,2,2h20c1.1,0,2-.9,2-2v-29c0-1.1-.9-2-2-2h-14.39Z"/>
    </g>
    <g>
      <path class="cls-1" d="M80.99,41.5c1.1,0,2.64.64,3.41,1.41l2.78,2.78c.78.78,1.41,2.31,1.41,3.41v23.39c0,1.1-.9,2-2,2h-20c-1.1,0-2-.9-2-2v-29c0-1.1.9-2,2-2h14.39Z"/>
      <path class="cls-3" d="M80.99,41.5c1.1,0,2.64.64,3.41,1.41l2.78,2.78c.78.78,1.41,2.31,1.41,3.41v23.39c0,1.1-.9,2-2,2h-20c-1.1,0-2-.9-2-2v-29c0-1.1.9-2,2-2h14.39Z"/>
    </g>
    <line class="cls-4" x1=".6" y1="80.5" x2="97.6" y2="80.5"/>
  </g>
</svg>